<svg width="134" height="57" viewBox="0 0 134 57" fill="none" xmlns="http://www.w3.org/2000/svg">
<path fill-rule="evenodd" clip-rule="evenodd" d="M36.8796 16.2217H24.1805L23.5846 15.4705H37.487L36.8796 16.2217Z" fill="#004077"/>
<path fill-rule="evenodd" clip-rule="evenodd" d="M29.6197 28.4835H47.8425L45.2039 31.731H31.2972L29.2602 34.2244L28.6413 34.9828H42.8302L34.9973 44.7899H16.3204L19.5393 40.7783L20.0936 41.5295H32.8027L35.4156 38.2332L21.4975 38.236L29.3604 28.4835" fill="#004077"/>
<path fill-rule="evenodd" clip-rule="evenodd" d="M42.1769 34.2215L42.8301 34.9828H28.6412L29.2601 34.2244L42.1769 34.2215Z" fill="#00A4E0"/>
<path fill-rule="evenodd" clip-rule="evenodd" d="M24.7292 22.7052L25.3251 21.9511H32.2526H38.0199L40.6442 25.236H26.7662L27.3707 25.9872L28.7917 27.7467H28.7946L29.3862 28.4835H47.8568L40.1156 18.7281H26.1774L24.1805 16.2217L23.5846 15.4705H37.487V15.4676L34.8627 12.2101H16.266L24.7292 22.7052Z" fill="#00A4E0"/>
<path fill-rule="evenodd" clip-rule="evenodd" d="M33.3943 40.7783H19.5392L20.0821 41.5295H33.9888H33.9959L33.3943 40.7783Z" fill="#00A4E0"/>
<path fill-rule="evenodd" clip-rule="evenodd" d="M39.2432 21.9511H25.3394L24.7406 22.7052H38.6387L39.2432 21.9511Z" fill="#004077"/>
<path fill-rule="evenodd" clip-rule="evenodd" d="M19.6825 28.482H24.3037L16.4665 38.2389L11.8209 38.236L19.6825 28.482Z" fill="#004077"/>
<path fill-rule="evenodd" clip-rule="evenodd" d="M24.3037 28.482H19.6825L17.071 25.2187H21.6865L24.3037 28.482Z" fill="#00A4E0"/>
<path d="M58.4043 16.2906H54.0925V40.7079H58.4043V16.2906Z" fill="#004077"/>
<path d="M82.0649 26.4324H73.0115C68.2212 26.4324 68.0193 25.5218 68.0193 23.4607C68.0193 20.3655 69.4145 20.0509 75.3837 20.0509H78.6298C85.3639 20.0509 86.0959 20.5924 86.3495 22.0244L86.4426 22.5501L90.6054 22.4955L90.5381 21.8133C90.1413 17.839 87.3193 16.2906 80.472 16.2906H73.8853C67.558 16.2906 63.8937 17.4282 63.8937 23.2409C63.8937 30.1352 68.121 30.4412 76.9136 30.4412H82.7195C86.4598 30.4412 87.0256 31.1033 87.0256 33.3813C87.0256 36.0571 86.2865 36.9477 81.9087 36.9477H72.4185C68.3846 36.9477 68.0508 35.6909 68.0508 34.289V33.647L63.9252 33.7375V34.3522C63.9252 40.7079 70.2482 40.7079 72.9485 40.7079H81.4389C85.0703 40.7079 91.1498 40.7079 91.1498 34.1009V32.6301C91.1498 27.1348 86.2936 26.431 82.0635 26.431L82.0649 26.4324Z" fill="#004077"/>
<path d="M113.094 26.4324H104.041C99.2505 26.4324 99.0486 25.5218 99.0486 23.4607C99.0486 20.3655 100.444 20.0509 106.413 20.0509H109.659C116.393 20.0509 117.125 20.5924 117.379 22.0244L117.472 22.5501L121.635 22.4955L121.567 21.8133C121.171 17.839 118.349 16.2906 111.501 16.2906H104.915C98.5873 16.2906 94.923 17.4282 94.923 23.2409C94.923 30.1352 99.1503 30.4412 107.943 30.4412H113.749C117.489 30.4412 118.055 31.1033 118.055 33.3813C118.055 36.0571 117.316 36.9477 112.938 36.9477H103.448C99.4139 36.9477 99.0801 35.6909 99.0801 34.289V33.647L94.9545 33.7375V34.3522C94.9545 40.7079 101.278 40.7079 103.978 40.7079H112.468C116.1 40.7079 122.179 40.7079 122.179 34.1009V32.6301C122.179 27.1348 117.323 26.431 113.093 26.431L113.094 26.4324Z" fill="#004077"/>
</svg>
